# xmcd
#
# Track frame offsets:
#	150
#	21825
#	34950
#	55707
#	71325
#	87680
#	107055
#	131140
#	142995
#	157102
#
# Disc length: 2227 seconds
#
# Revision: 1
# Processed by: cddbd v1.5PL3 Copyright (c) Steve Scherf et al.
# Submitted via: CDex 1.50Beta5
#
DISCID=8c08b10a
DTITLE=Various Artist - Noon Records Compilaton Vol.1
DYEAR=2002
DGENRE=Other
TTITLE0=Toe - Past AND Language
TTITLE1=Nyantora - Α
TTITLE2=Orange Market - Pixie Night Slow Film
TTITLE3=Milk Film - Magic Room
TTITLE4=Ieha - Rolling Thunder
TTITLE5=Tiera - Wish YOU Away
TTITLE6=Yogi - Teo
TTITLE7=Air 7 - Friaca
TTITLE8=Chicago Bass - Many's Loud Cain[Compilation Ver.]
TTITLE9=N.I.R.I.C - Moscow I.C
EXTD=
EXTT0=
EXTT1=
EXTT2=
EXTT3=
EXTT4=
EXTT5=
EXTT6=
EXTT7=
EXTT8=
EXTT9=
PLAYORDER=
